<svg width="190" height="21" viewBox="0 0 190 21" fill="none" xmlns="http://www.w3.org/2000/svg">
<path id="logo-text-horizontal-bluegrad" fill-rule="evenodd" clip-rule="evenodd" d="M0.107635 20.2033V16.322H19.9917V20.2033H0.107635ZM0.107635 8.55934H10.0497H19.9917V12.4407H0.107635V8.55934ZM0.107635 0.796715H19.9917V4.67803H0.107635V0.796715ZM46.2455 20.2033L39.7765 5.67423L33.3209 20.2033H28.9861L37.6158 0.796715H41.9373L50.5669 20.2033H46.2455ZM79.4189 20.2033V9.85311H75.4421V16.322H66.7197C64.581 16.322 63.5117 15.2826 63.5117 13.204V7.78308C63.5117 5.71305 64.5766 4.67803 66.7064 4.67803H79.4189V0.796715H66.1629C61.7442 0.796715 59.5349 2.953 59.5349 7.26557V13.7344C59.5349 18.047 61.7442 20.2033 66.1629 20.2033H79.4189ZM109.795 16.322V20.2033H89.9113V0.796715H93.8882V16.322H109.795ZM120.288 16.322V20.2033H140.172V16.322H120.288ZM140.172 8.55934H120.288V12.4407H140.172V8.55934ZM140.172 0.796715H120.288V4.67803H140.172V0.796715ZM162.499 5.67423L168.97 20.2033H173.292L164.66 0.796715H160.337L151.705 20.2033H156.041L162.499 5.67423ZM185.522 20.2033H189.5V0.796715H185.522V20.2033Z" fill="url(#paint0_linear_9242_575)"/>
<defs>
<linearGradient id="paint0_linear_9242_575" x1="0.107635" y1="0.796715" x2="4.61584" y2="40.9573" gradientUnits="userSpaceOnUse">
<stop stop-color="#0207F7"/>
<stop offset="0.686578" stop-color="#14FFFF"/>
</linearGradient>
</defs>
</svg>
