<svg width="39" height="35" viewBox="0 0 39 35" fill="none" xmlns="http://www.w3.org/2000/svg">
<path d="M34.1132 34.9992C34.1132 34.9992 32.4766 33.2193 30.5851 33.2193C28.6937 33.2193 27.2028 34.9992 23.0391 34.9992C18.8753 34.9992 13.4713 32.3493 12.395 25.2784L6.62565 34.9992H0.5L9.22483 20.2997C9.22483 20.2997 12.8078 22.7599 16.218 24.0076C16.218 24.0076 15.3062 26.4049 16.9945 29.164C18.6828 31.9222 24.6127 34.4781 30.5679 30.0834C30.5679 30.0834 33.8093 31.539 34.1124 35L34.1132 34.9992Z" fill="url(#paint0_linear_148_8)"/>
<path d="M37.9304 28.0574C37.9304 28.0574 37.9263 28.0518 37.9247 28.0502L21.2745 0L12.6062 14.6023C5.84981 11.2983 5.32146 8.07 5.32146 8.07C5.32146 8.07 4.68661 12.0703 7.48894 15.6508C8.23355 16.6013 9.29436 17.4307 10.4993 18.1517C13.8243 20.1379 18.2412 21.286 20.0998 21.8405C22.6327 22.5958 24.4233 23.285 24.1522 24.9605C23.8811 26.6352 21.2475 26.2082 20.7077 25.1908C20.7077 25.1908 19.9196 26.9029 21.8447 28.7322C23.6673 30.4627 28.0366 30.6411 30.6702 27.3578C30.6702 27.3578 37.3283 30.9805 35.9243 35C35.9243 35 40.8147 32.9309 37.9304 28.0582V28.0574ZM25.4579 26.5794C25.1172 26.5794 24.8387 26.3603 24.8387 26.0871C24.8387 25.8138 25.1172 25.5947 25.4579 25.5947C25.7987 25.5947 26.0772 25.8138 26.0772 26.0871C26.0772 26.3603 25.8004 26.5794 25.4579 26.5794ZM17.5465 16.6013L21.2753 10.3191L27.2134 20.3252C25.58 19.5293 22.6835 18.331 17.5474 16.6013H17.5465Z" fill="url(#paint1_linear_148_8)"/>
<defs>
<linearGradient id="paint0_linear_148_8" x1="0.5" y1="20.2997" x2="12.5034" y2="45.3534" gradientUnits="userSpaceOnUse">
<stop stop-color="#0207F7"/>
<stop offset="0.686578" stop-color="#14FFFF"/>
</linearGradient>
<linearGradient id="paint1_linear_148_8" x1="5.25974" y1="0" x2="41.6111" y2="31.837" gradientUnits="userSpaceOnUse">
<stop stop-color="#0207F7"/>
<stop offset="0.686578" stop-color="#14FFFF"/>
</linearGradient>
</defs>
</svg>
